<!DOCTYPE svg PUBLIC "-//W3C//DTD SVG 1.1//EN" "http://www.w3.org/Graphics/SVG/1.1/DTD/svg11.dtd">
<!-- Uploaded to: SVG Repo, www.svgrepo.com, Transformed by: SVG Repo Mixer Tools -->
<svg fill="#ffffff" version="1.1" id="Layer_1" xmlns="http://www.w3.org/2000/svg" xmlns:xlink="http://www.w3.org/1999/xlink" viewBox="0 0 512 512" xml:space="preserve" width="800px" height="800px" stroke="#ffffff">
<g id="SVGRepo_bgCarrier" stroke-width="0"/>
<g id="SVGRepo_tracerCarrier" stroke-linecap="round" stroke-linejoin="round"/>
<g id="SVGRepo_iconCarrier"> <g> <g> <polygon points="411.826,345.043 411.826,311.652 322.783,311.652 322.783,345.043 289.391,345.043 289.391,378.435 233.739,378.435 233.739,345.043 200.348,345.043 200.348,311.652 166.957,311.652 166.957,278.261 133.565,278.261 133.565,222.609 166.957,222.609 166.957,189.217 200.348,189.217 200.348,100.174 166.957,100.174 166.957,66.783 33.391,66.783 33.391,100.174 0,100.174 0,278.261 33.391,278.261 33.391,345.043 66.783,345.043 66.783,378.435 100.174,378.435 100.174,411.826 133.565,411.826 133.565,445.217 166.957,445.217 166.957,478.609 233.739,478.609 233.739,512 411.826,512 411.826,478.609 445.217,478.609 445.217,345.043 "/> </g> </g> <g> <g> <rect x="244.87" y="100.174" width="66.783" height="33.391"/> </g> </g> <g> <g> <rect x="311.652" y="133.565" width="33.391" height="33.391"/> </g> </g> <g> <g> <rect x="378.435" y="200.348" width="33.391" height="66.783"/> </g> </g> <g> <g> <rect x="345.043" y="166.957" width="33.391" height="33.391"/> </g> </g> <g> <g> <rect x="200.348" width="111.304" height="33.391"/> </g> </g> <g> <g> <rect x="378.435" y="66.783" width="33.391" height="33.391"/> </g> </g> <g> <g> <rect x="478.609" y="200.348" width="33.391" height="144.696"/> </g> </g> <g> <g> <rect x="411.826" y="100.174" width="33.391" height="33.391"/> </g> </g> <g> <g> <rect x="445.217" y="133.565" width="33.391" height="66.783"/> </g> </g> <g> <g> <rect x="311.652" y="33.391" width="66.783" height="33.391"/> </g> </g> </g>
</svg>